PathFileType	4	(X/Y/Z)	OpenSim_Sub07_CSBaseline_Accel.trc
DataRate	CameraRate	NumFrames	NumMarkers	Units	OrigDataRate	OrigDataStartFrame	OrigNumFrames
100	100	24	8	m	100	5842	7788
Frame#	Time	torso_imu_offset_imu	pelvis_imu_offset_imu	tibia_r_imu_offset_imu	femur_r_imu_offset_imu	tibia_l_imu_offset_imu	femur_l_imu_offset_imu	toes_r_imu_offset_imu	toes_l_imu_offset_imu
				X1	Y1	Z1	X2	Y2	Z2	X3	Y3	Z3	X4	Y4	Z4	X5	Y5	Z5	X6	Y6	Z6	X7	Y7	Z7	X8		Y8	Z8	

5842	58.41000000	-9.58934113	1.33786106	6.44531135	10.32436944	1.52551000	0.73207426	10.53532522	-0.10615587	-0.36081691	9.34893975	-1.21763472	-0.57928760	10.57457867	3.17670315	-1.88210914	8.88629618	10.10819827	1.09334312	4.65332877	0.61733357	8.78498311	18.55527618	1.59660709	1.80033209
5843	58.42000000	-9.69759533	1.43915776	6.42511195	10.67594934	1.47001718	0.80116893	10.57713637	0.25411971	-0.36807680	9.54004722	-0.79393842	-0.75879900	11.13720668	5.33116186	0.00457387	10.18129849	8.78012756	0.34497044	4.91822101	1.25789749	8.97147187	16.06715259	0.33886585	-2.13336638
5844	58.43000000	-9.79601766	1.50891894	6.58454462	10.90331136	1.38752404	1.06965855	10.65815869	0.56588122	-0.22325059	9.73065354	-0.20783718	-1.06136664	11.98163849	5.96766361	0.29679654	9.74684211	6.93321619	-0.26211459	5.20818861	1.05907062	8.70474111	14.31181866	-0.75858970	-5.50036922
5845	58.44000000	-9.92585957	1.58036942	6.64005172	11.24309460	1.53422975	1.49560350	10.41241283	0.74646062	-0.27405115	9.79185271	0.26166983	-1.27403353	12.04782515	4.73656972	0.66928099	8.36576622	5.91615359	-0.33972832	4.85601873	1.24126300	9.01396393	13.76906426	-0.70558867	-7.21295645
5846	58.45000000	-9.98176652	1.58876145	6.78982187	11.20454205	1.51855757	1.78905358	10.46052402	0.63502933	-0.20842189	9.92764768	0.53226068	-1.09092123	11.52446860	3.05356893	1.37053761	7.37023188	5.94084000	-0.70117208	4.86250511	1.01683707	8.97772565	14.41233381	0.58457024	-7.27316525
5847	58.46000000	-10.03305583	1.58046173	6.93593090	10.77432246	1.36157198	1.61894167	10.79363580	0.25608275	-0.11146202	10.13874182	0.80801766	-0.75379954	10.94578022	1.44135235	1.72464892	7.16474404	5.80381957	-1.60223923	4.90356842	0.82723876	8.92293868	9.92919034	-0.53383054	-1.10592598
5848	58.47000000	-10.44971723	1.56908049	7.22885367	10.45927908	1.43135311	1.48798518	11.00012488	0.10988635	0.22741219	10.21384339	0.95804991	-0.49659231	10.74326738	0.79934043	1.43859097	8.78675306	5.89019537	-2.06526901	5.30020219	0.85044698	8.76611256	6.52415945	-1.83217890	14.74965993
5849	58.48000000	-10.73605519	1.46986676	7.33570887	10.20410073	1.06711286	1.79361055	11.16046340	0.10155399	1.14161268	10.03827583	0.78585215	-0.39127876	9.97043310	1.30419297	0.96569639	9.62841683	5.30440570	-1.62972090	4.90928653	0.97735116	9.04153445	8.53160690	0.62481441	18.12053297
5850	58.49000000	-10.31398439	1.21725207	7.01940100	10.68430035	1.11593045	2.42972456	11.06475143	0.42738574	1.56606476	10.04953224	0.51646685	-0.25071675	8.83967469	2.99749136	1.40439678	9.25444817	4.21113010	-0.72168909	4.57668175	0.60419729	9.27379029	-1.41648831	-4.37973448	12.90535060
5851	58.50000000	-9.83578847	1.12127781	6.93179108	11.07775508	0.73169071	3.05620851	11.14313542	0.68898351	2.04166637	10.34926542	0.37116186	-0.08597373	9.16738174	4.39751378	3.64241256	10.02941436	3.53958821	0.55414216	4.72143420	0.43274769	9.34905981	2.99194030	-7.21298166	8.40358496
5852	58.51000000	-9.85342611	1.20387889	7.00598298	11.35311503	0.29541877	3.26935068	11.35096393	0.75983255	2.33353877	10.40573786	0.18239880	0.04313610	10.37399281	4.29005917	5.92549450	11.32397045	2.43166477	2.20619823	4.95039066	0.64088810	9.06094702	11.70611785	-6.29195446	13.41709080
5853	58.52000000	-10.27608262	1.17180561	7.08810132	10.97380528	-0.05954297	3.32322762	11.81896840	0.84838628	2.77937249	10.10475004	-0.46295853	0.09121047	10.87128295	2.39614409	6.83427040	11.90097177	2.49403599	2.83722201	5.01109471	0.57036667	9.13697884	15.66764862	-7.55726681	15.24483821
5854	58.53000000	-10.47491562	0.98946905	7.08234302	10.35673395	0.14992394	3.07262329	12.55274735	0.94860567	3.43791444	9.68722362	-1.55994531	0.02512077	11.38269008	0.04604534	4.74259886	12.18201813	3.49908705	2.37216153	5.14501479	0.74145994	9.35027949	17.79650481	-5.15454856	14.73454203
5855	58.54000000	-10.36986617	0.83911263	6.90745360	9.80860654	0.53329413	3.08642853	13.29243076	0.65744862	3.71994072	9.61388354	-2.68765798	0.02180474	13.06430560	-0.61067566	1.23965812	11.91168212	4.28691240	1.60215979	5.33165500	0.86247747	9.40971871	14.24400905	7.80824236	15.42542563
5856	58.55000000	-10.00454632	0.70766619	6.66734884	9.61013111	0.99631018	3.32680307	13.65499513	0.13908679	3.93894286	9.73900223	-3.44413613	-0.00781301	13.30786360	-0.00327113	-0.45898221	10.53496641	3.86767095	0.75238516	5.28472009	0.63112767	9.83244822	10.27352591	9.89896586	15.07246293
5857	58.56000000	-9.69045637	0.66028137	6.31882272	9.64244285	1.10979939	3.60483118	13.83427206	-0.24217493	3.66428167	9.88567414	-3.74231095	-0.02727476	11.35254186	0.27505954	-0.64697605	9.31550924	1.87620801	-1.20878339	4.96160820	-0.22864072	9.81124748	11.37147093	2.86176463	13.52366887
5858	58.57000000	-9.48577288	0.65818106	6.07839179	9.53820088	0.85905219	3.96332341	13.99752333	-1.02218485	2.87477086	9.91037836	-3.49537435	0.11433499	8.78684468	-0.32225273	-1.16113355	8.86850532	-0.12694832	-3.38597706	4.44988906	0.99413427	9.80456590	4.43065057	-3.59914472	9.31710490
5859	58.58000000	-9.52389273	0.64893300	5.89207640	9.52932961	0.70736250	4.37617185	14.01534749	-2.55602430	1.39398478	9.82921149	-2.65905725	0.57605608	8.06846643	-2.16392550	-1.75577682	8.19748125	-3.14858899	-3.72992537	5.34542770	0.79434615	10.18035010	7.84818391	0.01183236	12.74604322
5860	58.59000000	-9.48967864	0.60978928	5.77375976	9.53688091	0.73023401	4.76878639	13.58393067	-3.64972285	0.07235547	9.75230305	-1.43731963	1.17162551	8.10174880	-6.37403445	-1.60959734	8.72339710	-4.03722328	-2.81069970	7.33656690	0.93181341	10.95203086	6.13999672	2.22743250	10.34804526
5861	58.60000000	-9.34354807	0.43889396	5.73199571	9.55370181	0.92141938	4.89908632	12.84194217	-2.74709950	0.09687010	9.76172089	-0.16778875	1.31379967	7.56852725	-10.12071948	-1.44959665	9.07697223	-2.58578998	-2.72195990	7.70518830	0.23309313	10.06726267	5.08187615	2.13541158	11.87306434
5862	58.61000000	-9.12989242	0.27977616	5.68032278	9.46734655	1.20259377	4.91573008	12.75650115	-0.06295701	-0.99568925	9.60026806	0.44446321	0.86095495	7.72210728	-9.60736815	-0.95674415	9.65117428	0.46072377	-2.96037281	7.14888308	-1.45499599	9.89506247	5.99611334	1.45446147	10.32936058
5863	58.62000000	-8.82491307	0.08539639	5.64434905	9.40138432	1.43336033	4.77267104	13.01996096	2.42400969	-1.88074781	8.86298391	0.71893725	0.79856711	9.21635262	-6.07456700	1.25053082	10.50796355	3.75864476	-2.56117498	8.21063322	-0.12150984	9.51168993	7.42580427	0.48347689	10.69444997
5864	58.63000000	-8.66365487	-0.13021677	5.58254992	9.29094625	1.50351347	4.47686354	12.71827667	4.01682467	-2.08856682	7.84368829	1.37126991	0.87645252	10.53734729	-2.31463192	2.86010785	11.04959490	6.77041098	-1.82242257	10.55242842	-1.52085903	10.50748365	5.84084452	0.33758487	10.73873635
5865	58.64000000	-8.59728875	-0.34049445	5.51428985	9.15326301	1.40877653	4.18314424	11.98923700	4.94901969	-2.38164470	7.78671806	1.38339219	1.07572369	11.02022637	-0.58580701	1.44406134	10.18423674	8.11846005	-1.18086411	12.50000742	-2.59787831	11.97172383	5.65944862	1.31485983	11.09768507
